<svg xmlns="http://www.w3.org/2000/svg" width="691" height="777" fill="none" viewBox="0 0 691 777"><rect width="691" height="777" fill="#fff"/><g filter="url(#filter0_d_1_29)"><path fill="url(#paint0_linear_1_29)" d="M323.333 27.6569C265.333 32.5902 212.933 56.0569 167.067 97.7902C136.933 125.257 109.467 167.657 96.6666 206.857C90 227.257 84 259.657 83.0666 280.324C81.2 323.124 89.7333 364.457 108.267 401.657C115.6 416.324 132 441.79 133.867 441.524C134.533 441.39 140.8 431.524 147.733 419.524L160.267 397.79L153.6 384.99C144.8 368.324 138.133 350.19 134.533 332.99C132.133 321.657 131.6 314.457 131.467 294.99C131.467 281.79 132.133 266.457 133.067 260.99C142.933 201.657 172.8 151.79 220.4 115.79C241.067 100.19 270.533 85.7902 294 79.5235C307.333 76.1902 331.733 73.1235 346.667 72.9902C383.867 72.8569 426.933 85.6569 458.8 106.324C463.333 109.257 467.467 111.657 467.867 111.657C468.267 111.657 471.867 105.79 475.867 98.5902C479.867 91.5235 484.8 83.1235 486.933 80.0569C488.933 76.9902 490.667 73.6569 490.667 72.5902C490.667 68.4569 458 50.1902 436.533 42.4569C422.8 37.5235 398.267 31.1235 384.533 29.1235C370.933 27.1235 339.067 26.3235 323.333 27.6569Z"/><path fill="url(#paint1_linear_1_29)" d="M512.267 92.5902C509.467 96.7235 490.667 128.59 490.667 129.257C490.667 129.524 495.467 134.857 501.333 140.99C528.4 169.39 546.4 203.524 553.067 238.59L555.2 250.324H579.6H604V245.924C603.867 232.19 590.133 188.59 579.733 168.99C571.2 152.857 560.133 135.79 552.267 126.324C543.733 116.19 525.733 97.5235 519.733 92.8569L514.933 88.9902L512.267 92.5902Z"/><path fill="url(#paint2_linear_1_29)" d="M327.2 109.257C324.533 114.59 316.8 130.724 310 144.99C294 178.857 256.667 256.724 242.267 286.324C215.333 342.057 181.733 411.524 164.4 447.524L154.533 468.057L164 476.724C179.067 490.457 187.2 496.857 188.533 496.057C190.267 494.857 308.933 254.724 329.6 210.324C336.267 196.057 342 184.057 342.133 183.79C342.8 182.99 359.067 217.124 373.733 250.324C380.667 266.057 388.933 284.324 391.867 290.724C394.933 297.257 397.333 303.124 397.333 303.79C397.333 304.457 378.933 304.99 354.267 304.99H311.067L300.667 326.59C295.067 338.59 290 349.124 289.733 350.057C289.067 351.524 300.533 351.79 352.8 351.39C425.067 350.857 423.867 350.99 435.867 340.19C445.067 331.924 448.4 323.524 447.733 310.457C447.2 299.257 445.733 295.657 409.333 216.99C400.667 198.324 387.867 170.324 380.667 154.99C373.6 139.524 365.067 120.857 361.6 113.257L355.467 99.6569H343.733H332L327.2 109.257Z"/><path fill="url(#paint3_linear_1_29)" d="M425.333 145.924C420 156.857 415.333 166.057 415.067 166.457C414.933 166.857 419.333 170.324 425.067 174.057C437.333 182.19 454.8 199.657 462.4 211.524C468.133 220.19 476 238.857 476 243.524C476 250.324 475.733 250.324 503.6 250.324H529.467L528.667 245.257C525.867 228.99 512.8 199.924 500.267 182.457C485.6 161.924 459.733 138.324 442.4 129.524C438.933 127.79 435.867 126.324 435.6 126.324C435.467 126.324 430.8 135.124 425.333 145.924Z"/><path fill="url(#paint4_linear_1_29)" d="M164.4 280.324C156 283.924 152.267 295.257 156.667 303.524C158.933 308.057 168.133 312.19 173.333 310.99C175.333 310.59 178.933 308.057 181.467 305.524C184.933 301.924 186 299.79 186 295.79C186 284.324 174.267 275.924 164.4 280.324Z"/><path fill="url(#paint5_linear_1_29)" d="M508.4 280.857C497.2 287.79 496.667 301.524 507.333 308.457C514 312.857 525.733 309.79 529.467 302.724C536.533 289.524 520.667 273.257 508.4 280.857Z"/><path fill="url(#paint6_linear_1_29)" d="M555.333 324.59C546 371.257 531.067 402.19 502 434.857C475.6 464.457 445.333 484.457 409.067 496.19C387.2 503.39 373.467 505.39 346.267 505.524L322.667 505.657L319.2 514.99C317.2 520.057 313.733 529.39 311.333 535.657C308.933 541.924 307.333 547.39 307.867 548.057C309.6 549.924 330.933 551.657 348.667 551.524C438.4 550.59 517.867 506.99 566.133 432.19C585.333 402.324 601.733 356.99 604.267 326.99L604.667 321.657L580.4 321.257L556 320.99L555.333 324.59Z"/><path fill="url(#paint7_linear_1_29)" d="M470 363.39C464.933 363.79 464.4 364.324 459.6 372.857C448.133 393.124 426.933 413.257 406 423.657C384.667 434.19 375.333 436.324 350 436.324C325.2 436.324 314.133 434.19 295.867 426.324C284.133 421.257 275.333 415.924 267.333 408.857L262.933 404.99L252.8 425.924C247.2 437.39 242.8 447.524 243.067 448.19C244.133 450.724 271.067 465.924 282.133 470.057C330.267 488.324 382.8 486.324 427.333 464.324C451.6 452.324 479.867 427.524 496 404.057C503.867 392.59 517.333 367.524 517.333 364.324C517.333 362.457 514.533 362.324 496.4 362.59C484.8 362.857 472.933 363.124 470 363.39Z"/><path fill="url(#paint8_linear_1_29)" d="M221.467 490.59C215.467 502.324 210.667 512.057 210.933 512.19C222.533 520.19 244.267 530.857 263.2 537.657L276.133 542.324L278.8 535.924C284.933 522.19 292 503.39 292.4 500.724C292.533 498.724 291.6 497.657 288.667 496.59C273.067 491.524 248 479.924 238.267 473.124L232.667 469.257L221.467 490.59Z"/><path fill="url(#paint9_linear_1_29)" d="M336.4 610.324C331.867 613.124 328 619.124 328 623.657C328 632.19 336.133 639.657 345.467 639.657C356.8 639.657 364.8 629.39 361.333 618.99C357.867 608.724 345.867 604.457 336.4 610.324Z"/><path fill="url(#paint10_linear_1_29)" d="M161.333 620.324C160.4 621.39 160 623.657 160.533 625.657C161.2 628.324 162.267 628.99 165.333 628.99C170.4 628.99 172.667 625.257 169.867 621.257C167.467 617.924 163.733 617.524 161.333 620.324Z"/><path fill="url(#paint11_linear_1_29)" d="M188.667 621.79C187.067 623.39 186.933 624.324 188.133 625.79C189.333 627.39 200.133 627.657 250.933 627.657C306.4 627.657 312.133 627.39 312.933 625.524C315.067 619.924 311.867 619.657 249.867 619.657C197.467 619.657 190.667 619.924 188.667 621.79Z"/><path fill="url(#paint12_linear_1_29)" d="M379.333 621.524C377.867 622.59 377.2 624.057 377.733 625.524C378.533 627.524 383.867 627.657 439.6 627.39C498.133 626.99 500.667 626.857 501.067 624.457C501.333 623.124 500.8 621.524 499.733 620.857C498.8 620.19 471.867 619.657 439.867 619.657C393.067 619.657 381.333 620.057 379.333 621.524Z"/><path fill="url(#paint13_linear_1_29)" d="M519.333 622.324C518.133 626.057 520.933 629.257 525.2 628.724C528.133 628.457 528.667 627.657 528.667 624.324C528.667 620.857 528.133 620.324 524.4 619.924C521.067 619.657 520 620.057 519.333 622.324Z"/><path fill="url(#paint14_linear_1_29)" d="M40 685.924C37.6 691.657 32.1333 704.59 27.8667 714.59C23.4667 724.59 20 733.124 20 733.524C20 733.924 22.6667 734.324 25.8667 734.324C31.4667 734.324 31.8667 734.057 33.8667 728.99L36 723.657H47.8667H59.7333L61.8667 728.99C63.8667 734.19 64.1333 734.324 70.1333 734.324C74.5333 734.324 76.1333 733.79 75.6 732.59C74.5333 730.19 56.1333 686.457 53.6 680.59C52 676.59 50.9333 675.657 47.8667 675.657C44.5333 675.657 43.8667 676.59 40 685.924ZM51.7333 706.59L54.5333 712.99H48.5333C45.3333 712.99 42.6667 712.59 42.6667 712.19C42.6667 709.657 47.4667 698.59 48.1333 699.39C48.6667 699.924 50.2667 703.124 51.7333 706.59Z"/><path fill="url(#paint15_linear_1_29)" d="M72 676.324C72 676.59 76.6667 684.59 82.4 693.924L92.6667 710.857L93.0667 722.59L93.6 734.324H99.4667H105.333V722.19V710.057L115.333 693.39C120.8 684.324 125.333 676.59 125.333 676.19C125.333 675.924 122.133 675.657 118.133 675.657H110.933L107.467 683.924C105.467 688.59 102.8 693.79 101.467 695.524L99.0667 698.59L91.8667 687.124L84.6667 675.657H78.4C74.8 675.657 72 675.924 72 676.324Z"/><path fill="url(#paint16_linear_1_29)" d="M134.267 676.457C133.733 676.99 133.333 686.057 133.333 696.59C133.333 717.924 134.667 722.724 142.667 729.39C150.133 735.79 164.533 735.924 172.533 729.79C179.467 724.59 181.2 718.057 181.6 696.057C182 677.124 182 677.124 178.933 676.324C171.467 674.457 171.067 675.39 170.4 696.59C169.867 715.79 169.733 716.057 166.133 719.124C161.067 723.657 153.6 723.524 149.2 718.857C146.133 715.657 146 714.324 145.333 695.924L144.667 676.324L140 675.924C137.333 675.657 134.8 675.924 134.267 676.457Z"/><path fill="url(#paint17_linear_1_29)" d="M210 676.59C204.8 677.924 198.8 683.657 197.2 688.857C195.867 693.257 196 694.857 198.133 699.257C200.8 704.59 204.667 707.124 217.6 711.79C226.133 714.724 227.733 717.257 224 720.99C220.533 724.457 214.8 724.324 207.2 720.724L201.067 717.924L198 721.79C194.267 726.457 195.2 728.19 203.333 731.79C214 736.724 227.067 734.324 233.733 726.457C242 716.59 235.867 704.99 220 700.324C209.333 697.124 205.6 693.257 209.6 689.257C211.733 687.124 222.533 687.257 226.533 689.524C229.467 691.124 230 690.99 233.2 687.257L236.533 683.257L233.467 680.857C228.267 676.59 217.867 674.724 210 676.59Z"/><path fill="url(#paint18_linear_1_29)" d="M251.6 676.59C251.067 676.99 250.667 690.19 250.667 705.79V734.057L255.333 734.59C257.867 734.857 260.533 734.857 261.2 734.324C261.867 733.924 262.667 728.857 262.933 722.99L263.333 712.324H276H288.667L289.067 723.257L289.467 734.324H294.667H300V705.657V676.99H294.667H289.333V688.99V700.99H276H262.667V688.324V675.657H257.6C254.8 675.657 252 676.057 251.6 676.59Z"/><path fill="url(#paint19_linear_1_29)" d="M364.667 678.19C346.4 686.724 341.333 707.924 353.867 724.19C363.467 736.857 386.133 738.057 396.533 726.457C399.067 723.657 399.067 723.524 395.333 719.657L391.6 715.79L387.867 718.99C380.133 725.39 370.533 724.857 364.133 717.524C356.8 709.257 357.067 699.657 364.667 692.057C368.4 688.324 370 687.657 375.333 687.657C379.467 687.657 383.333 688.59 386.133 690.457L390.667 693.257L394.8 690.324L398.8 687.39L395.733 684.057C388.4 676.057 374.8 673.524 364.667 678.19Z"/><path fill="url(#paint20_linear_1_29)" d="M413.333 676.457C411.6 676.99 411.333 681.124 411.733 705.657L412.133 734.324H418H424V722.99V711.657H436.667H449.333V722.99V734.324H455.6H461.733L460.933 721.257C460.4 714.19 460 701.124 460 692.324V676.19L454.667 676.724L449.333 677.257V689.124V701.124L436.4 700.724C425.867 700.457 423.333 699.924 423.2 698.324C423.067 697.257 422.933 691.657 422.933 685.924L422.667 675.657L419.067 675.79C416.933 675.924 414.4 676.19 413.333 676.457Z"/><path fill="url(#paint21_linear_1_29)" d="M477.6 696.857C478 718.057 478 718.19 482 723.79C492.933 739.124 516 738.057 523.867 721.79C526.533 716.59 526.667 714.057 526.4 696.19C526 674.324 526.8 676.19 517.733 676.724C514.667 676.99 514.667 677.257 514.667 696.19C514.667 714.457 514.533 715.39 511.467 718.724C506.933 723.657 502.267 724.457 497.067 721.39C489.6 717.124 488 712.057 488 692.59V675.657H482.533H477.2L477.6 696.857Z"/><path fill="url(#paint22_linear_1_29)" d="M561.067 677.524C553.2 680.59 548.267 684.99 544.667 692.19C535.067 711.524 548.667 734.457 569.867 734.59C579.2 734.724 587.2 732.057 591.6 727.39C594.8 724.057 595.333 722.324 595.733 713.657L596.267 703.657H584.133H572V708.99V714.324H577.867C585.333 714.324 586.4 716.057 582.133 720.324C575.6 726.724 561.333 724.057 556 715.257C550.267 705.924 554.267 693.524 564.4 688.457C570.533 685.524 576.267 686.324 583.2 690.99L587.867 694.19L590.667 689.79C592.133 687.39 593.333 684.99 593.333 684.59C593.333 684.057 590.667 682.19 587.333 680.19C580 675.924 568.4 674.724 561.067 677.524Z"/><path fill="url(#paint23_linear_1_29)" d="M617.733 676.724L612 677.124V705.79V734.324H618H624V722.99V711.657H636.667H649.333V722.99V734.324H654.667H660V706.324C660 690.857 660.133 677.924 660.4 677.257C660.533 676.724 658.133 676.19 655.067 675.924L649.333 675.524V688.19V700.99H636.667H624.133L623.733 688.59L623.333 676.324L617.733 676.724Z"/></g><defs><filter id="filter0_d_1_29" width="664.405" height="731.765" x="14" y="21" color-interpolation-filters="sRGB" filterUnits="userSpaceOnUse"><feFlood flood-opacity="0" result="BackgroundImageFix"/><feColorMatrix in="SourceAlpha" result="hardAlpha" type="matrix" values="0 0 0 0 0 0 0 0 0 0 0 0 0 0 0 0 0 0 127 0"/><feOffset dx="6" dy="6"/><feGaussianBlur stdDeviation="6"/><feComposite in2="hardAlpha" operator="out"/><feColorMatrix type="matrix" values="0 0 0 0 0 0 0 0 0 0 0 0 0 0 0 0 0 0 0.31 0"/><feBlend in2="BackgroundImageFix" mode="normal" result="effect1_dropShadow_1_29"/><feBlend in="SourceGraphic" in2="effect1_dropShadow_1_29" mode="normal" result="shape"/></filter><linearGradient id="paint0_linear_1_29" x1="687.2" x2="-44.239" y1="193.041" y2="193.041" gradientUnits="userSpaceOnUse"><stop stop-color="#CB6CE6"/><stop offset="1" stop-color="#004AAD"/></linearGradient><linearGradient id="paint1_linear_1_29" x1="658.612" x2="455.361" y1="153.613" y2="153.613" gradientUnits="userSpaceOnUse"><stop stop-color="#CB6CE6"/><stop offset="1" stop-color="#004AAD"/></linearGradient><linearGradient id="paint2_linear_1_29" x1="589.141" x2="63.17" y1="258.464" y2="258.464" gradientUnits="userSpaceOnUse"><stop stop-color="#CB6CE6"/><stop offset="1" stop-color="#004AAD"/></linearGradient><linearGradient id="paint3_linear_1_29" x1="584.595" x2="379.425" y1="175.993" y2="175.993" gradientUnits="userSpaceOnUse"><stop stop-color="#CB6CE6"/><stop offset="1" stop-color="#004AAD"/></linearGradient><linearGradient id="paint4_linear_1_29" x1="201.031" x2="145.088" y1="291.979" y2="291.979" gradientUnits="userSpaceOnUse"><stop stop-color="#CB6CE6"/><stop offset="1" stop-color="#004AAD"/></linearGradient><linearGradient id="paint5_linear_1_29" x1="546.419" x2="489.825" y1="291.567" y2="291.567" gradientUnits="userSpaceOnUse"><stop stop-color="#CB6CE6"/><stop offset="1" stop-color="#004AAD"/></linearGradient><linearGradient id="paint6_linear_1_29" x1="747.736" x2="215.272" y1="413.335" y2="413.335" gradientUnits="userSpaceOnUse"><stop stop-color="#CB6CE6"/><stop offset="1" stop-color="#004AAD"/></linearGradient><linearGradient id="paint7_linear_1_29" x1="649.501" x2="157.612" y1="410.53" y2="410.53" gradientUnits="userSpaceOnUse"><stop stop-color="#CB6CE6"/><stop offset="1" stop-color="#004AAD"/></linearGradient><linearGradient id="paint8_linear_1_29" x1="331.68" x2="185.537" y1="498.524" y2="498.524" gradientUnits="userSpaceOnUse"><stop stop-color="#CB6CE6"/><stop offset="1" stop-color="#004AAD"/></linearGradient><linearGradient id="paint9_linear_1_29" x1="378.606" x2="317.362" y1="620.48" y2="620.48" gradientUnits="userSpaceOnUse"><stop stop-color="#CB6CE6"/><stop offset="1" stop-color="#004AAD"/></linearGradient><linearGradient id="paint10_linear_1_29" x1="176.277" x2="156.934" y1="622.68" y2="622.68" gradientUnits="userSpaceOnUse"><stop stop-color="#CB6CE6"/><stop offset="1" stop-color="#004AAD"/></linearGradient><linearGradient id="paint11_linear_1_29" x1="374.116" x2="148.07" y1="622.861" y2="622.861" gradientUnits="userSpaceOnUse"><stop stop-color="#CB6CE6"/><stop offset="1" stop-color="#004AAD"/></linearGradient><linearGradient id="paint12_linear_1_29" x1="560.686" x2="339.052" y1="622.796" y2="622.796" gradientUnits="userSpaceOnUse"><stop stop-color="#CB6CE6"/><stop offset="1" stop-color="#004AAD"/></linearGradient><linearGradient id="paint13_linear_1_29" x1="533.299" x2="516.06" y1="623.428" y2="623.428" gradientUnits="userSpaceOnUse"><stop stop-color="#CB6CE6"/><stop offset="1" stop-color="#004AAD"/></linearGradient><linearGradient id="paint14_linear_1_29" x1="102.539" x2="2.649" y1="699.156" y2="699.156" gradientUnits="userSpaceOnUse"><stop stop-color="#CB6CE6"/><stop offset="1" stop-color="#004AAD"/></linearGradient><linearGradient id="paint15_linear_1_29" x1="151.033" x2="55.386" y1="699.156" y2="699.156" gradientUnits="userSpaceOnUse"><stop stop-color="#CB6CE6"/><stop offset="1" stop-color="#004AAD"/></linearGradient><linearGradient id="paint16_linear_1_29" x1="205.131" x2="118.24" y1="699.157" y2="699.157" gradientUnits="userSpaceOnUse"><stop stop-color="#CB6CE6"/><stop offset="1" stop-color="#004AAD"/></linearGradient><linearGradient id="paint17_linear_1_29" x1="257.415" x2="182.969" y1="699.295" y2="699.295" gradientUnits="userSpaceOnUse"><stop stop-color="#CB6CE6"/><stop offset="1" stop-color="#004AAD"/></linearGradient><linearGradient id="paint18_linear_1_29" x1="323.772" x2="235.298" y1="699.333" y2="699.333" gradientUnits="userSpaceOnUse"><stop stop-color="#CB6CE6"/><stop offset="1" stop-color="#004AAD"/></linearGradient><linearGradient id="paint19_linear_1_29" x1="423.781" x2="330.81" y1="699.336" y2="699.336" gradientUnits="userSpaceOnUse"><stop stop-color="#CB6CE6"/><stop offset="1" stop-color="#004AAD"/></linearGradient><linearGradient id="paint20_linear_1_29" x1="485.905" x2="395.944" y1="699.156" y2="699.156" gradientUnits="userSpaceOnUse"><stop stop-color="#CB6CE6"/><stop offset="1" stop-color="#004AAD"/></linearGradient><linearGradient id="paint21_linear_1_29" x1="550.25" x2="461.844" y1="699.294" y2="699.294" gradientUnits="userSpaceOnUse"><stop stop-color="#CB6CE6"/><stop offset="1" stop-color="#004AAD"/></linearGradient><linearGradient id="paint22_linear_1_29" x1="622.642" x2="524.481" y1="699.477" y2="699.477" gradientUnits="userSpaceOnUse"><stop stop-color="#CB6CE6"/><stop offset="1" stop-color="#004AAD"/></linearGradient><linearGradient id="paint23_linear_1_29" x1="683.731" x2="596.921" y1="699.076" y2="699.076" gradientUnits="userSpaceOnUse"><stop stop-color="#CB6CE6"/><stop offset="1" stop-color="#004AAD"/></linearGradient></defs></svg>